<?xml version="1.0" encoding="utf-8"?>
<!-- Generator: Adobe Illustrator 25.2.0, SVG Export Plug-In . SVG Version: 6.00 Build 0)  -->
<svg version="1.1" id="Layer_1" xmlns="http://www.w3.org/2000/svg" xmlns:xlink="http://www.w3.org/1999/xlink" x="0px" y="0px"
	 viewBox="0 0 200 29.6" style="enable-background:new 0 0 200 29.6;" xml:space="preserve">
<style type="text/css">
	.st0{fill:#F1F1F1;}
</style>
<g>
	<g>
		<path class="st0" d="M64.1,8.4C62.4,7.5,60.5,7,58.4,7s-4,0.5-5.7,1.4s-3.1,2.3-4,4c-1,1.7-1.5,3.7-1.5,5.9s0.5,4.2,1.4,5.9
			c1,1.7,2.3,3,4,4c1.7,0.9,3.6,1.4,5.7,1.4c2.1,0,4.1-0.5,5.8-1.4c1.7-0.9,3.1-2.3,4.1-4s1.5-3.7,1.5-5.9s-0.5-4.2-1.5-5.9
			C67.1,10.6,65.8,9.3,64.1,8.4z M63.1,21.8c-0.5,1-1.2,1.7-2.1,2.2c-0.9,0.5-1.8,0.7-2.8,0.7c-1.6,0-2.9-0.6-3.9-1.7
			s-1.6-2.7-1.6-4.8s0.5-3.7,1.6-4.8s2.4-1.7,4-1.7s2.9,0.6,4,1.7s1.6,2.7,1.6,4.8C63.9,19.7,63.7,20.9,63.1,21.8z M40.3,8.1
			C39,7.4,37.6,7,35.9,7c-1.4,0-2.8,0.3-3.9,0.8c-1.2,0.5-2.1,1.3-2.8,2.2V0h-5.5v29.2h5.5V17.1c0-1.7,0.4-3.1,1.3-4
			s2.1-1.4,3.6-1.4s2.7,0.5,3.6,1.4c0.9,0.9,1.3,2.3,1.3,4v12.1h5.5V16.4c0-2-0.4-3.7-1.1-5.1C42.6,9.9,41.6,8.8,40.3,8.1z
			 M87.6,8.3C86,7.4,84.1,7,82.1,7c-2.2,0-4.1,0.5-5.7,1.4c-1.7,0.9-2.9,2.2-3.9,3.9c-0.9,1.7-1.4,3.7-1.4,6c0,2.2,0.5,4.2,1.4,5.9
			c0.9,1.7,2.2,3,3.9,4c1.7,0.9,3.6,1.4,5.7,1.4c2.6,0,4.8-0.7,6.6-2c1.8-1.4,3-3.1,3.6-5.2h-6C85.4,24.1,84,25,81.9,25
			c-1.4,0-2.6-0.4-3.6-1.3s-1.5-2.1-1.7-3.7h16c0.1-0.6,0.2-1.3,0.2-2.1c0-2.1-0.5-4-1.4-5.7C90.6,10.5,89.3,9.2,87.6,8.3z
			 M76.7,16.2c0.2-1.5,0.8-2.6,1.7-3.5c0.9-0.8,2.1-1.2,3.5-1.2s2.7,0.4,3.7,1.3c1,0.9,1.5,2,1.5,3.4H76.7z M15.8,14.7
			c-1.1-0.5-2.6-1.1-4.4-1.6c-1.3-0.4-2.3-0.7-3.1-1c-0.7-0.3-1.3-0.7-1.8-1.2S5.8,9.8,5.8,9.1c0-1.1,0.3-1.9,1-2.4
			c0.6-0.6,1.5-0.8,2.6-0.8c1.2,0,2.2,0.3,3,0.9s1.2,1.4,1.2,2.3h6.1c-0.2-2.5-1.2-4.4-2.9-5.8c-1.9-1.3-4.2-2-7-2
			c-1.9,0-3.6,0.3-5.1,1C3.3,2.9,2.1,3.8,1.3,5S0.1,7.6,0.1,9.3s0.4,3.1,1.2,4.2c0.8,1,1.8,1.8,2.9,2.3c1.1,0.5,2.6,1,4.4,1.6
			c1.3,0.4,2.3,0.7,3.1,1s1.4,0.7,1.9,1.2s0.8,1.2,0.8,2c0,1-0.4,1.8-1.1,2.4c-0.7,0.6-1.8,0.9-3,0.9c-1.3,0-2.3-0.3-3-1
			s-1.1-1.6-1.2-2.7H0c0,1.7,0.5,3.1,1.4,4.4c0.9,1.2,2.1,2.2,3.7,2.8c1.5,0.7,3.3,1,5.2,1c2,0,3.8-0.4,5.3-1.1
			c1.5-0.8,2.6-1.8,3.4-3c0.8-1.3,1.1-2.6,1.1-4.1c0-1.7-0.4-3.1-1.2-4.1C17.9,16,17,15.3,15.8,14.7z M170.4,10.7V7.3h-5.5v21.9h5.5
			V18.3c0-2,0.4-3.4,1.3-4.3c0.9-0.8,2.2-1.2,3.9-1.2h1.5V7c-1.5,0-2.8,0.3-3.9,1S171.1,9.6,170.4,10.7z M119,14.7
			c-1.1-0.5-2.6-1.1-4.4-1.6c-1.3-0.4-2.3-0.7-3.1-1c-0.7-0.3-1.3-0.7-1.8-1.2S109,9.8,109,9.1c0-1.1,0.3-1.9,1-2.4s1.5-0.8,2.6-0.8
			c1.2,0,2.2,0.3,3,0.9s1.2,1.4,1.2,2.3h6.1c-0.2-2.5-1.2-4.4-2.9-5.8c-1.8-1.4-4.1-2.1-6.9-2.1c-1.9,0-3.6,0.3-5.1,1
			c-1.5,0.6-2.6,1.6-3.4,2.8s-1.2,2.6-1.2,4.3s0.4,3.1,1.2,4.2c0.8,1,1.8,1.8,2.9,2.3s2.6,1,4.4,1.6c1.3,0.4,2.3,0.7,3.1,1
			c0.7,0.3,1.4,0.7,1.9,1.2s0.8,1.2,0.8,2c0,1-0.4,1.8-1.1,2.4s-1.8,0.9-3,0.9c-1.3,0-2.3-0.3-3-1s-1.1-1.6-1.2-2.7h-5.9
			c0,1.7,0.5,3.1,1.4,4.4c0.9,1.2,2.1,2.2,3.7,2.8c1.5,0.7,3.3,1,5.2,1c2,0,3.8-0.4,5.3-1.1c1.5-0.8,2.6-1.8,3.4-3
			c0.8-1.3,1.1-2.6,1.1-4.1c0-1.7-0.4-3.1-1.2-4.1C121.1,16,120.1,15.3,119,14.7z M200,17.8c0-2.1-0.5-4-1.4-5.7
			c-0.9-1.6-2.2-2.9-3.8-3.8S191.3,7,189.2,7c-2.2,0-4.1,0.5-5.7,1.4c-1.7,0.9-2.9,2.2-3.9,3.9c-0.9,1.7-1.4,3.7-1.4,6
			c0,2.2,0.5,4.2,1.4,5.9c0.9,1.7,2.2,3,3.9,4c1.7,0.9,3.6,1.4,5.7,1.4c2.6,0,4.8-0.7,6.6-2c1.8-1.4,3-3.1,3.6-5.2h-6
			c-0.9,1.8-2.3,2.6-4.4,2.6c-1.4,0-2.6-0.4-3.6-1.3s-1.5-2.1-1.7-3.7h16C199.9,19.3,200,18.6,200,17.8z M183.9,16.2
			c0.2-1.5,0.8-2.6,1.7-3.5c0.9-0.8,2.1-1.2,3.5-1.2s2.7,0.4,3.7,1.3c1,0.9,1.5,2,1.5,3.4H183.9z M133.2,1.9h-5.6v5.4H125v4.5h2.6
			v10.5c0,4.5,2.3,6.8,7,6.8h3.5v-4.7h-2.6c-0.8,0-1.4-0.2-1.8-0.5c-0.4-0.3-0.5-0.9-0.5-1.6V11.9h4.9V7.3h-4.9V1.9z M156.5,8.4
			c-1.7-0.9-3.6-1.4-5.7-1.4s-4,0.5-5.7,1.4s-3.1,2.3-4,4c-1,1.7-1.5,3.7-1.5,5.9s0.5,4.2,1.4,5.9c1,1.7,2.3,3,4,4
			c1.7,0.9,3.6,1.4,5.7,1.4c2.1,0,4.1-0.5,5.8-1.4s3.1-2.3,4.1-4s1.5-3.7,1.5-5.9s-0.5-4.2-1.5-5.9C159.5,10.6,158.2,9.3,156.5,8.4z
			 M155.5,21.8c-0.5,1-1.2,1.7-2.1,2.2c-0.9,0.5-1.8,0.7-2.8,0.7c-1.6,0-2.9-0.6-3.9-1.7s-1.6-2.7-1.6-4.8s0.5-3.7,1.6-4.8
			s2.4-1.7,4-1.7s2.9,0.6,4,1.7s1.6,2.7,1.6,4.8C156.3,19.7,156.1,20.9,155.5,21.8z"/>
	</g>
</g>
</svg>
